<?xml version="1.0" encoding="UTF-8"?>
<!-- Generated by Pixelmator Pro 3.5.11 -->
<svg width="1116" height="1116" viewBox="0 0 1116 1116" xmlns="http://www.w3.org/2000/svg">
    <path id="Shape" fill="#000000" fill-rule="evenodd" stroke="none" d="M 502.838623 619.941711 C 502.102356 619.909668 494.075012 614.21582 485 607.288696 C 475.924988 600.361633 468.5 594.114502 468.5 593.406128 C 468.5 592.697815 471.768433 589.62439 475.763245 586.576355 C 479.757996 583.528381 487.502197 577.617554 492.972595 573.441284 C 502.918762 565.848022 502.918762 565.848022 507.209351 568.885437 C 509.569214 570.555969 516 575.360535 521.5 579.562195 C 527 583.763916 533.245483 588.632019 535.378906 590.38031 C 539.257751 593.55896 539.257751 593.55896 521.717529 606.779541 C 512.070374 614.050781 503.57489 619.973755 502.838623 619.941711 Z M 611.93866 619.894897 C 611.1474 619.837036 602.976868 614.099609 593.781982 607.144897 C 584.587036 600.190186 577.162048 593.942627 577.281982 593.261414 C 577.401855 592.580139 585.309692 586.129395 594.854858 578.92627 C 612.209717 565.829773 612.209717 565.829773 615.433899 568.164917 C 617.207214 569.449219 624.003479 574.549988 630.536743 579.5 C 637.070007 584.450012 643.739685 589.660583 645.358215 591.079041 C 648.300964 593.658142 648.300964 593.658142 630.839172 606.829102 C 621.235168 614.07312 612.729919 619.952698 611.93866 619.894897 Z M 502.959961 576.753479 C 491.010193 585.857056 486.24469 589.644348 484.6604 591.042969 C 481.779846 593.585938 481.779846 593.585938 491.639893 601.250916 C 497.062988 605.466614 502.299133 608.822266 503.275879 608.707886 C 504.252563 608.593567 509.339294 605.197632 514.57959 601.161316 C 519.819946 597.125 523.970825 593.432922 523.803772 592.956665 C 523.636719 592.480408 518.878479 588.639893 513.22998 584.422119 Z M 613.023254 608.704163 C 613.937195 608.46521 618.656372 605.169922 623.510254 601.38147 C 628.364197 597.592957 632.500427 593.998718 632.701965 593.394165 C 632.903442 592.789673 628.70697 589.016846 623.376343 585.010132 C 618.045776 581.003418 613.174805 577.6745 612.55188 577.61261 C 611.929016 577.550659 606.851746 580.875 601.269104 585 C 595.686401 589.125 591.092041 592.801758 591.059387 593.170532 C 591.026733 593.539307 595.58136 597.28302 601.180786 601.489868 C 607.206482 606.017029 612.039734 608.961365 613.023254 608.704163 Z M 189.5 602.887695 C 173.5 590.5 173.5 590.5 155.081421 590 C 141.600891 589.634033 136.551651 589.164856 136.248093 588.25 C 135.928146 587.285767 139.395462 587 151.416672 587 C 159.987503 587 167 586.598145 167 586.106995 C 167 585.615845 166.288193 584.940857 165.418213 584.606995 C 164.548233 584.273132 154.577301 584 143.260605 584 L 122.684784 584 L 107.534546 572.510254 L 92.384308 561.020447 L 46.455688 560.760254 C 3.628349 560.517578 0.504326 560.381836 0.190208 558.75 C -0.126709 557.103577 2.608971 557 46.416168 557 L 92.978973 557 L 107.429062 546.020081 C 121.879135 535.040161 121.879135 535.040161 143.106903 534.770081 C 158.741104 534.571167 164.441849 534.177979 164.741364 533.277893 C 165.046097 532.362244 161.618866 531.986145 151.071335 531.777893 C 142.54039 531.609497 136.993881 531.106018 136.992752 530.5 C 136.991623 529.889587 143.907181 529.305237 154.745453 529 C 172.5 528.5 172.5 528.5 180.690948 522.25 L 188.881927 516 L 264.472107 516 L 340.062286 516 L 356.281128 528.25 C 365.201508 534.987488 373.413544 540.48999 374.53009 540.477661 C 375.646667 540.465393 379.457733 538.215393 382.999176 535.477661 C 386.540619 532.73999 390.239594 530.356201 391.219086 530.180481 C 392.198578 530.0047 392.990387 530.454712 392.978638 531.180481 C 392.966919 531.906189 391.054413 533.841675 388.728638 535.481506 C 386.402893 537.121338 383.000305 539.830261 381.167358 541.501282 C 377.834717 544.539612 377.834717 544.539612 385.495331 550.333862 L 393.155945 556.128113 L 401.03537 550.314087 C 405.369049 547.116333 417.717957 537.832153 428.477386 529.682556 L 448.039917 514.865112 L 461.997681 525.461853 C 469.674438 531.2901 481.686035 540.41687 488.690063 545.743591 C 495.694092 551.070374 502.132385 555.428589 502.997437 555.428589 C 503.862488 555.428589 510.179443 551.146973 517.035095 545.913879 C 523.890808 540.680786 535.910828 531.548462 543.746216 525.619812 L 557.992493 514.840454 L 566.746216 521.689697 C 571.560791 525.456787 583.775574 534.783691 593.890137 542.416077 C 611.241821 555.509644 612.406067 556.214355 614.508728 554.896606 C 615.734436 554.128479 627.702637 545.174988 641.104797 535 C 654.506897 524.825012 666.237061 516.359985 667.171753 516.188904 C 668.115601 516.016113 674.459839 520.126221 681.440369 525.432678 C 688.353394 530.687927 699.744812 539.351746 706.754761 544.68573 C 713.764648 550.019714 720.2276 554.409973 721.116943 554.441956 C 722.006287 554.473877 725.749695 552.342712 729.435608 549.706055 C 733.121582 547.069397 735.993958 544.507813 735.818665 544.013733 C 735.643433 543.519592 733.25 541.427856 730.5 539.365356 C 727.75 537.302917 724.391357 534.583069 723.036377 533.32135 C 721.265991 531.672852 720.87793 530.722107 721.657227 529.94281 C 722.436523 529.163513 725.053162 530.628479 730.955688 535.148743 C 738.998169 541.3078 739.225586 541.407104 741.845337 539.903564 C 743.316956 539.05896 751.152466 533.335205 759.257568 527.184021 L 773.994202 516 L 849.548035 516 L 925.101807 516 L 933.300903 522.25 C 941.5 528.5 941.5 528.5 959.254517 529 C 970.092773 529.305237 977.008423 529.889587 977.007202 530.5 C 977.006104 531.106018 971.459595 531.609497 962.928711 531.777893 C 952.381104 531.986145 948.953857 532.362244 949.258667 533.277893 C 949.558228 534.178223 955.275024 534.571167 970.96814 534.770325 C 992.271118 535.040588 992.271118 535.040588 1006.385498 545.770325 L 1020.5 556.5 L 1068 557 C 1109.333374 557.43512 1115.5 557.694763 1115.5 559 C 1115.5 560.308289 1109.51416 560.533264 1068.667725 560.759949 L 1021.835449 561.019897 L 1007.167725 572.259949 C 992.5 583.5 992.5 583.5 970.581787 584 C 954.300171 584.371399 948.556885 584.821472 948.248535 585.75 C 947.928589 586.713318 951.31189 587 963 587 C 974.688354 587 978.071289 587.286682 977.750854 588.25 C 977.443726 589.173706 972.679688 589.571472 959.50061 589.773743 C 941.666077 590.047485 941.666077 590.047485 932.968079 596.523743 L 924.270081 603 L 849.557495 603 L 774.844849 603 L 763.27832 594.25 C 756.916687 589.4375 749.036682 583.53241 745.767151 581.127563 C 739.82251 576.755127 739.82251 576.755127 736.661255 579.063354 C 734.922546 580.332886 731.117004 583.157471 728.204529 585.340271 C 724.10376 588.413574 722.639893 589.039917 721.716309 588.116333 C 720.792664 587.192688 721.300598 586.311768 723.967346 584.211792 C 725.861389 582.720337 729.414124 579.963074 731.862244 578.084595 C 736.313293 574.669189 736.313293 574.669189 733.406677 572.074219 C 731.807983 570.647034 728.882507 568.24646 726.905579 566.739685 C 724.928711 565.232849 722.555237 564 721.631226 564 C 720.707214 564 708.295959 572.775024 694.050598 583.5 C 679.805298 594.225037 667.847656 603 667.478027 603 C 667.108398 603 661.45697 598.940369 654.91925 593.978577 C 648.381531 589.016785 636.421326 579.957642 628.341064 573.847107 C 615.966248 564.489075 613.311951 562.87616 611.508057 563.618591 C 610.330261 564.103394 598.696228 572.600037 585.654724 582.5 C 572.61322 592.400024 560.90625 601.134949 559.639282 601.911011 C 557.452271 603.250549 556.606201 602.765076 542.917847 592.316101 C 534.988037 586.262878 522.742065 576.960693 515.704529 571.644531 L 502.909058 561.978882 L 476.204529 582.239441 C 461.517029 593.382751 448.813965 602.475159 447.975403 602.444824 C 447.136902 602.41449 434.608643 593.476379 420.134827 582.582458 C 399.082977 566.737427 393.453613 562.947754 391.993256 563.637634 C 390.989197 564.111938 387.365631 566.717896 383.940887 569.42865 C 377.714081 574.357361 377.714081 574.357361 380.126831 576.42865 C 381.453827 577.567932 384.893158 580.22583 387.769775 582.335205 C 390.646393 584.444519 393 586.807007 393 587.585205 C 393 588.363342 392.427521 589 391.727844 589 C 391.028168 589 388.890656 587.735596 386.977844 586.190247 C 385.065033 584.644897 381.397369 581.893616 378.827454 580.076355 C 374.154907 576.772217 374.154907 576.772217 356.922058 589.886108 L 339.689178 603 L 264.594574 602.943848 Z M 338.030792 598 C 362.099152 579.93396 368.954742 574.118469 368.793365 573.421143 C 368.632019 572.723816 365.467468 569.818726 361.761017 566.965454 C 358.054565 564.112122 354.454559 562.02124 353.761017 562.319092 C 353.067444 562.616882 344.436249 568.966919 334.580566 576.430298 L 316.661133 590 L 249.247223 590 C 207.793945 590 181.9617 590.360535 182.166656 590.936279 C 182.350006 591.451172 184.299988 593.220398 186.5 594.867798 C 190.5 597.863037 190.5 597.863037 264.265381 597.931519 Z M 797.341553 590 C 783.514343 579.44458 775.224976 573.140869 770 569.181702 C 764.733276 565.190979 759.88147 562.219482 759.112 562.513245 C 758.348572 562.804688 754.846802 565.155701 751.330261 567.737732 C 747.813782 570.319763 745.063354 572.994995 745.218323 573.682739 C 745.37323 574.370422 752.25 580.093445 760.5 586.400452 L 775.5 597.867798 L 849.5 597.906067 C 923.5 597.944397 923.5 597.944397 927.5 594.925842 C 929.700012 593.265625 931.650024 591.478149 931.833313 590.953613 C 932.042603 590.354919 907.077087 590 864.754089 590 Z M 448.142456 520.835327 C 415.869568 545.13147 404.530945 553.834229 402.124298 555.849609 C 397.748596 559.514038 397.748596 559.514038 422.539001 578.257019 C 436.173706 588.565674 447.706604 597 448.167542 597 C 448.62854 597 459.889709 588.756531 473.192444 578.681213 C 486.495178 568.605896 497.497803 559.943359 497.642822 559.431213 C 497.787842 558.919067 492.980225 554.783997 486.959351 550.242188 C 480.938416 545.700378 469.741516 537.22583 462.077332 531.40979 Z M 558.069214 596.618774 C 558.932251 596.433411 570.578247 588.007202 583.949219 577.893738 C 608.260132 559.505676 608.260132 559.505676 604.380066 556.296814 C 602.246033 554.53186 590.926697 545.850952 579.226074 537.005737 C 557.952087 520.923645 557.952087 520.923645 554.055603 523.711792 C 551.912598 525.2453 540.667114 533.681396 529.065796 542.458618 C 517.464417 551.23584 508.127625 558.882935 508.317383 559.452148 C 508.507141 560.021362 519.425842 568.692505 532.581177 578.721375 C 545.736511 588.750244 557.206116 596.804077 558.069214 596.618774 Z M 668 596.660034 C 668.825012 596.461182 675.484436 591.760376 682.798706 586.213806 C 690.113037 580.667236 700.787109 572.61261 706.51886 568.314575 C 712.25061 564.016541 716.953674 560.005249 716.970154 559.400574 C 716.986572 558.795898 706.359619 550.245911 693.354675 540.400574 C 680.091309 530.359619 668.785278 522.5 667.604675 522.5 C 666.429749 522.5 655.008484 530.393311 641.75 540.368408 C 628.6875 550.196045 618.020935 558.746033 618.04657 559.368408 C 618.072144 559.990784 628.98468 568.717346 642.29657 578.760803 C 655.608459 588.804199 667.174988 596.858826 668 596.660034 Z M 315.5 586.5 C 351.182434 559.515686 351.182434 559.515686 347.841217 556.702454 C 346.00354 555.155151 337.924347 548.96106 329.887451 542.937805 L 315.274872 531.98645 L 244.970703 532.243225 C 189.80011 532.444763 174.576843 532.769104 174.249924 533.75 C 173.919434 534.741699 187.5961 535 240.424713 535 L 307.016083 535 L 322.258057 546.565552 C 330.641113 552.926575 337.5 558.661926 337.5 559.31073 C 337.5 559.959595 332.325012 564.440308 326 569.267822 C 319.674988 574.095398 312.510345 579.385071 310.078552 581.022644 C 305.657104 584 305.657104 584 239.828552 584 C 200.082031 584 174 584.367188 174 584.926697 C 174 585.43634 174.787506 586.06366 175.75 586.32074 C 176.712494 586.57782 208.549988 586.723328 246.5 586.644043 Z M 807.5 583.948669 C 783.474976 565.590393 776.5 559.778809 776.5 559.190063 C 776.5 558.601257 783.439148 552.917603 791.920288 546.559753 L 807.340576 535 L 874.170288 535 C 912.718994 535 941 534.622131 941 534.106995 C 941 533.615845 940.288208 532.940857 939.418213 532.606995 C 938.548218 532.273132 906.55835 532 868.32959 532 L 798.822754 532 L 781.411377 545.123413 C 771.835144 552.341248 764.025452 558.753723 764.056641 559.373413 C 764.087769 559.993042 766.675232 562.364868 769.806641 564.644104 C 772.937988 566.92334 780.864502 572.885803 787.421082 577.894043 L 799.342102 587 L 868.089294 587 C 905.900208 587 937.548218 586.726868 938.418213 586.393005 C 939.288208 586.059204 940 585.384155 940 584.893005 C 940 584.378235 911.939392 583.989136 873.75 583.974365 Z M 448.0224 536.757507 C 470.092529 553.364685 476.636597 558.554016 476.803528 559.003723 C 476.97052 559.453369 471.006531 564.473999 463.550354 570.160645 C 456.094116 575.84729 449.20752 580.597351 448.246765 580.71637 C 447.286072 580.835388 440.424988 576.254211 433 570.536011 C 425.575012 564.81781 419.5 559.6828 419.5 559.124878 C 419.5 558.566956 425.917542 553.30603 433.761169 547.43396 Z M 557.015198 536.785645 C 579.090942 553.300842 585.637817 558.487488 585.806213 558.966492 C 585.97467 559.445496 579.98407 564.486511 572.493835 570.168701 C 565.003601 575.850891 558.115784 580.592651 557.187622 580.705933 C 556.259399 580.819214 549.267212 576.148132 541.649414 570.325745 C 527.798828 559.739685 527.798828 559.739685 530.649414 557.053101 C 532.217224 555.5755 538.790894 550.410889 545.257629 545.576111 Z M 666.285583 580.696289 C 665.303528 580.804199 658.247009 576.112793 650.604431 570.270935 C 636.708923 559.649292 636.708923 559.649292 639.647461 557.074646 C 641.263672 555.65863 647.873596 550.492249 654.336182 545.593872 C 666.086365 536.687744 666.086365 536.687744 669.293152 539.045349 C 671.056946 540.34198 677.450012 545.160828 683.5 549.753845 C 689.549988 554.346863 694.637268 558.493103 694.805115 558.967712 C 694.9729 559.442261 689.026428 564.481201 681.590698 570.165283 C 674.154968 575.849365 667.2677 580.588318 666.285583 580.696289 Z M 139.833328 578.964905 C 149.343674 578.985352 156.02742 578.616455 155.833328 578.081787 C 155.649994 577.576782 150.715561 573.526794 144.867905 569.081787 C 134.235809 561 134.235809 561 118.034576 561 C 108.676453 561 101.974121 561.385986 102.166672 561.913757 C 102.350006 562.416382 107.225006 566.450562 113 570.878662 C 123.5 578.929749 123.5 578.929749 139.833328 578.964905 Z M 168.25 578.962891 C 169.762497 578.983276 170.978577 578.662537 170.952393 578.25 C 170.926208 577.837524 165.772629 573.674988 159.5 569 C 153.227371 564.325012 148.073792 559.992676 148.047607 559.372559 C 148.021423 558.752502 153.175003 554.338745 159.5 549.564209 C 165.824997 544.789734 171 540.459534 171 539.94165 C 171 539.423767 169.987503 539.001953 168.75 539.004272 C 167.512497 539.006653 164.684418 540.244141 162.465363 541.754272 C 160.246307 543.264465 154.263321 547.588562 149.16983 551.363403 C 144.07634 555.138306 140.041931 558.600891 140.204468 559.057983 C 140.36702 559.515137 146.125 564.172363 153 569.40741 C 161.626846 575.97644 166.352097 578.937256 168.25 578.962891 Z M 248.572815 579 C 274.1539 559.699341 274.1539 559.699341 271.826935 557.510071 C 270.547119 556.305969 264.905212 551.873657 259.289368 547.6604 L 249.078766 540 L 214.498596 540 L 179.918427 540 L 167.900375 549.075256 C 160.944473 554.327881 156.012421 558.739136 156.191162 559.548035 C 156.361023 560.31665 161.899994 565.007324 168.5 569.971619 L 180.5 578.997681 L 214.536407 578.99884 Z M 282.10556 579 C 305.211121 579 305.211121 579 317.567139 569.75 C 324.362946 564.662537 329.94043 559.982788 329.961578 559.350586 C 329.982697 558.718384 325.929779 555.118347 320.955078 551.350586 C 315.980347 547.582764 310.039948 543.262512 307.75415 541.75 C 303.598145 539 303.598145 539 280.799072 539 C 267.583069 539 258 539.386841 258 539.920288 C 258 540.426453 263.174988 544.746948 269.5 549.521423 C 275.825012 554.295898 280.97522 558.719238 280.944916 559.351135 C 280.914612 559.983032 275.96463 564.232178 269.944916 568.79364 C 263.925201 573.355164 259 577.517639 259 578.04364 C 259 578.624512 268.071259 579 282.10556 579 Z M 832.333313 578.955444 C 846.390015 578.98175 856.029907 578.623657 855.833313 578.082458 C 855.650024 577.57782 850.577881 573.415344 844.561951 568.832458 C 838.546082 564.249634 833.471924 560.015198 833.286194 559.422668 C 833.100403 558.830078 838.342285 554.330078 844.934753 549.422668 C 851.527283 544.515198 856.938904 540.162537 856.960571 539.75 C 856.982239 539.337524 846.860535 539 834.467896 539 C 817.146912 539 811.191528 539.329346 808.717896 540.424011 C 806.948059 541.207214 800.775024 545.489746 795 549.940796 C 789.224976 554.391785 784.5 558.555603 784.5 559.193726 C 784.5 559.831848 789.900024 564.529297 796.5 569.632446 C 808.5 578.910889 808.5 578.910889 832.333313 578.955444 Z M 933.947205 579 C 953.363159 564.032104 958.984619 559.419556 958.965942 559.093262 C 958.947144 558.766968 953.409058 554.337524 946.659058 549.25 L 934.38623 540 L 899.774597 540 L 865.162964 540 L 853.027649 549.101379 C 846.25293 554.182312 841.026611 558.799744 841.196167 559.554382 C 841.363281 560.297791 846.900024 564.965698 853.5 569.92749 L 865.5 578.948975 L 899.723572 578.974487 Z M 945.643799 579 C 947.426514 579 952.474365 575.871216 961.143799 569.392578 C 968.214722 564.108521 974 559.410767 974 558.953186 C 974 558.495605 969.894653 555.056458 964.876953 551.310608 C 959.859253 547.564819 953.941528 543.262512 951.72644 541.75 C 949.511353 540.237488 946.641724 539 945.349487 539 C 944.057251 539 943 539.394836 943 539.877441 C 943 540.360046 948.175049 544.661316 954.5 549.435791 C 960.824951 554.210327 966 558.660156 966 559.324341 C 966 559.988525 960.850342 564.349731 954.556152 569.015991 C 948.262085 573.68219 943.087036 577.837524 943.056152 578.25 C 943.025269 578.662537 944.189697 579 945.643799 579 Z M 973.999756 579 C 990.16626 579 990.16626 579 1001.08313 570.893616 C 1007.087402 566.435059 1012 562.385071 1012 561.893616 C 1012 561.4021 1004.786987 561 995.970947 561 C 979.942017 561 979.942017 561 969.220947 569.062012 C 963.324463 573.496094 958.349976 577.546082 958.166626 578.061951 C 957.968018 578.621094 964.363892 579 973.999756 579 Z M 373.621307 570.722046 C 374.238007 570.599915 377.722198 568.25 381.363953 565.5 C 385.005707 562.75 387.876129 559.893494 387.742676 559.152161 C 387.609192 558.410828 384.575012 555.587769 381 552.878662 C 377.089294 549.915161 373.789581 548.127686 372.716583 548.391602 C 371.735687 548.632874 368.045349 551.00592 364.515808 553.665161 C 360.986267 556.324341 358.188812 558.81134 358.299225 559.191833 C 358.409668 559.572327 361.649994 562.372253 365.5 565.413818 C 369.350006 568.455444 373.004578 570.844116 373.621307 570.722046 Z M 740.809631 571 C 741.091431 571 744.624512 568.514282 748.66095 565.476196 C 752.697449 562.43811 755.98877 559.62561 755.975098 559.226196 C 755.961426 558.826782 752.978455 556.25 749.346375 553.5 C 745.714294 550.75 742.103882 548.350342 741.323181 548.167419 C 740.542542 547.984497 736.887939 550.156494 733.201904 552.99408 C 729.515869 555.831604 726.384583 558.681274 726.24353 559.32666 C 726.102478 559.971985 727.452454 561.514221 729.24353 562.753845 C 731.034607 563.993408 734.254395 566.355957 736.398682 568.003845 C 738.542969 569.651733 740.527893 571 740.809631 571 Z M 118.432571 557 C 133.865143 557 133.865143 557 144.880661 548.820557 C 150.939209 544.321838 155.667999 540.271851 155.389084 539.820557 C 155.110168 539.369263 148.226242 539 140.091461 539 C 125.595825 539 125.220963 539.05481 121.288223 541.75 C 119.081223 543.262512 114.063507 546.90509 110.137741 549.844666 C 106.21199 552.784241 103 555.596741 103 556.094666 C 103 556.596008 109.886551 557 118.432571 557 Z M 796.944275 529 C 902.387451 529 932.99469 528.662537 932.988159 528.25 C 932.981628 527.837524 930.545288 525.8125 927.573975 523.75 C 922.171631 520 922.171631 520 849.543518 520 L 776.915405 520 L 760.907837 532.100464 C 752.103699 538.755737 745.046631 544.639893 745.225464 545.176331 C 745.404297 545.71283 748.689209 548.588806 752.525269 551.567383 C 756.361389 554.545959 759.730164 556.874329 760.011536 556.741516 C 760.292847 556.608704 768.717834 550.3125 778.733704 542.75 Z M 996.133179 557 C 1004.859863 557 1011.990356 556.662537 1011.978638 556.25 C 1011.966919 555.837524 1010.054443 554.171448 1007.728638 552.547607 C 1005.402832 550.923828 1000.486572 547.211304 996.803345 544.297607 C 990.106812 539 990.106812 539 973.970093 539 C 964.040527 539 957.961548 539.371155 958.166626 539.964844 C 958.349976 540.495544 963.397461 544.545532 969.383179 548.964844 C 980.266235 557 980.266235 557 996.133179 557 Z M 337.5 520.029053 C 191.767944 520 191.767944 520 186.883972 523.585205 C 184.197784 525.557007 182 527.582031 182 528.085205 C 182 528.629089 209.46817 529.007385 249.75 529.018188 L 317.5 529.036377 L 335 542.507385 C 347.129211 551.844055 353.147949 555.878906 354.611267 555.654358 C 355.772491 555.476196 359.507843 553.187134 362.912109 550.567627 C 366.316345 547.94812 368.930573 545.286316 368.721527 544.652466 C 368.512451 544.018616 361.402069 538.219055 352.920685 531.764526 Z M 503.062988 497.945007 C 525.101685 514.455933 533.255493 520.677307 535.401001 522.422485 C 539.302063 525.595581 539.302063 525.595581 531.901001 531.179504 C 527.830444 534.250671 520.224976 540.045471 515 544.056885 C 509.775024 548.068237 504.599976 551.49353 503.5 551.668518 C 502.181885 551.878296 495.874634 547.69635 485 539.402405 C 475.924988 532.481018 468.5 526.219116 468.5 525.487 C 468.5 524.754883 476.276672 518.258423 485.781494 511.050415 Z M 612.160034 497.847839 C 639.464417 518.503296 647.375366 524.93219 647.355652 525.460327 C 647.335876 525.988525 639.747925 532.176025 630.493469 539.210327 C 621.238953 546.24469 612.954529 551.969727 612.083557 551.9328 C 611.212585 551.895813 602.973389 546.158264 593.774231 539.1828 C 584.575073 532.207275 577.150085 525.9953 577.274231 525.378357 C 577.398438 524.761475 580.536072 521.947144 584.246887 519.124329 C 587.957642 516.301514 595.756165 510.359497 601.576904 505.919861 Z M 503.084656 508.875671 C 486.838196 521.237366 483.015991 524.821655 483.19928 525.738098 C 483.364685 526.564819 487.775024 530.520813 493 534.529175 C 498.224976 538.537537 502.790894 541.745789 503.146423 541.658569 C 503.501953 541.57135 508.331238 538.125 513.878235 534 C 519.425232 529.875 523.859314 525.970276 523.731812 525.322815 C 523.604309 524.675354 518.906555 520.709839 513.292297 516.51062 Z M 612.5802 541.549377 C 613.174316 541.353455 617.899292 537.952698 623.0802 533.992188 C 628.261108 530.031677 632.5 526.210205 632.5 525.5 C 632.5 524.789856 628.285828 520.987305 623.135193 517.049866 C 617.665405 512.86853 613.002136 510.017639 611.923279 510.195496 C 610.907349 510.362976 605.700073 513.848511 600.351501 517.941101 C 590.626892 525.382202 590.626892 525.382202 594.063416 528.116455 C 595.953552 529.6203 600.650024 533.338135 604.5 536.378235 C 608.349976 539.418335 611.986084 541.745361 612.5802 541.549377 Z"/>
</svg>
